Coordinates
version=1
nRows=15
nColumns=34
inDegrees=no

Units are S.I. units (second, meters, Newtons, ...)
If the header above contains a line with 'inDegrees', this indicates whether rotational values are in degrees (yes) or radians (no).

endheader
time	pelvis_tilt	pelvis_list	pelvis_rotation	pelvis_tx	pelvis_ty	pelvis_tz	hip_flexion_r	hip_adduction_r	hip_rotation_r	knee_angle_r	ankle_angle_r	subtalar_angle_r	mtp_angle_r	hip_flexion_l	hip_adduction_l	hip_rotation_l	knee_angle_l	ankle_angle_l	subtalar_angle_l	mtp_angle_l	lumbar_extension	lumbar_bending	lumbar_rotation	arm_flex_r	arm_add_r	arm_rot_r	elbow_flex_r	pro_sup_r	arm_flex_l	arm_add_l	arm_rot_l	elbow_flex_l	pro_sup_l
0.75	0.192597	0.0343686	0.0230386	0.787437	1.13816	-0.17558	-0.180622	-0.0474978	-0.113495	0.88974	-0.2654	-0.102201	-0.0580529	0.148426	0.103481	-0.13986	0.340946	0.0259685	-0.133532	-0.122702	-0.432015	-0.0250779	-0.0397658	-0.148921	-0.141509	-0.265575	0.755248	2.13364	-0.116636	-0.147079	-0.188833	0.741713	2.09671
0.76	0.194437	0.0358512	0.016924	0.798431	1.14006	-0.175493	-0.153171	-0.054367	-0.099351	0.934794	-0.278211	-0.116842	-0.0581463	0.13244	0.104749	-0.144688	0.334353	0.033985	-0.127796	-0.122674	-0.433655	-0.0301264	-0.0399322	-0.151188	-0.141972	-0.257336	0.751765	2.13324	-0.117088	-0.149127	-0.188255	0.746043	2.10161
0.77	0.19641	0.0371704	0.0115955	0.809279	1.14198	-0.175478	-0.126445	-0.060556	-0.0868738	0.97596	-0.283042	-0.131198	-0.0582398	0.115821	0.106125	-0.148788	0.326589	0.040821	-0.12186	-0.122648	-0.435338	-0.0345126	-0.0412394	-0.153058	-0.142721	-0.248678	0.748752	2.133	-0.117808	-0.151301	-0.187498	0.750853	2.10574
0.78	0.198393	0.0382041	0.00729267	0.819991	1.1439	-0.175551	-0.100485	-0.0659535	-0.0762942	1.01282	-0.280992	-0.146039	-0.0583331	0.0988608	0.10746	-0.151989	0.318	0.0467483	-0.115598	-0.122621	-0.436946	-0.0380432	-0.0436784	-0.154693	-0.143588	-0.24014	0.746277	2.13289	-0.118662	-0.153521	-0.186634	0.755949	2.10898
0.79	0.200268	0.0388637	0.00409066	0.830577	1.14583	-0.175716	-0.0752675	-0.070514	-0.0676299	1.04511	-0.273646	-0.162038	-0.0584265	0.08177	0.108624	-0.154323	0.30879	0.0520251	-0.108829	-0.122594	-0.438384	-0.0406149	-0.0470732	-0.156274	-0.144427	-0.232245	0.744436	2.13287	-0.119515	-0.155697	-0.185731	0.761202	2.11131
0.8	0.201931	0.0391043	0.00192006	0.841049	1.14773	-0.17597	-0.0507275	-0.074253	-0.0607198	1.07267	-0.262821	-0.179661	-0.0585197	0.0646856	0.109522	-0.155976	0.299045	0.0568687	-0.101374	-0.122567	-0.43958	-0.0422187	-0.0511275	-0.157982	-0.14512	-0.225444	0.743336	2.13289	-0.120241	-0.157747	-0.184838	0.766558	2.11279
0.81	0.203303	0.0389234	0.000609799	0.851417	1.14961	-0.176301	-0.0267868	-0.0772311	-0.0552807	1.09546	-0.250278	-0.199081	-0.058613	0.0476883	0.110109	-0.157212	0.288775	0.0614456	-0.0930953	-0.122541	-0.440493	-0.0429257	-0.0554859	-0.159966	-0.145587	-0.22008	0.743061	2.13292	-0.120732	-0.159607	-0.183979	0.772024	2.11352
0.82	0.204331	0.0383503	-5.90576e-05	0.86169	1.15144	-0.176696	-0.00337791	-0.0795308	-0.0509716	1.11353	-0.237472	-0.220137	-0.0587061	0.0308221	0.110382	-0.158309	0.277959	0.0658755	-0.083927	-0.122514	-0.441108	-0.0428586	-0.0597974	-0.162331	-0.145786	-0.216361	0.743653	2.13294	-0.120913	-0.161236	-0.183144	0.777651	2.11364
0.83	0.204997	0.0374319	-0.000301892	0.871875	1.15321	-0.177139	0.019536	-0.0812327	-0.0474527	1.12697	-0.225383	-0.242342	-0.0587993	0.0141137	0.110367	-0.159504	0.26659	0.0702453	-0.0738799	-0.122488	-0.441435	-0.0421576	-0.0637691	-0.165124	-0.145711	-0.214352	0.745099	2.13294	-0.120731	-0.162622	-0.182305	0.783517	2.11327
0.84	0.205317	0.0362184	-0.000291404	0.881978	1.15489	-0.177617	0.041948	-0.0823963	-0.0444299	1.1359	-0.214458	-0.264936	-0.0588924	-0.00241416	0.110097	-0.160955	0.254704	0.0746259	-0.0630295	-0.122462	-0.441508	-0.0409523	-0.0672005	-0.168331	-0.145389	-0.213979	0.747322	2.13291	-0.120167	-0.163781	-0.181415	0.789698	2.11253
0.85	0.205324	0.0347526	-0.000137683	0.892001	1.15647	-0.178118	0.0638023	-0.083051	-0.0416772	1.14044	-0.204665	-0.286974	-0.0589855	-0.0187345	0.109597	-0.162743	0.242396	0.0790859	-0.051493	-0.122436	-0.441384	-0.0393436	-0.0699966	-0.171882	-0.144866	-0.215052	0.75019	2.13285	-0.119224	-0.164753	-0.180426	0.796258	2.11153
0.86	0.20507	0.0330669	0.000112221	0.901948	1.15793	-0.178634	0.0849973	-0.0831969	-0.0390409	1.1407	-0.195629	-0.307437	-0.0590785	-0.0348145	0.108879	-0.164879	0.229826	0.0836991	-0.0394047	-0.12241	-0.441137	-0.0374001	-0.0721607	-0.175663	-0.144201	-0.217289	0.753525	2.13277	-0.117929	-0.165594	-0.179291	0.803237	2.11036
0.87	0.204612	0.031187	0.000460337	0.911821	1.15927	-0.179157	0.105397	-0.0828163	-0.0364276	1.13678	-0.186808	-0.325356	-0.0591715	-0.0506155	0.107936	-0.167325	0.217201	0.0885408	-0.0268985	-0.122384	-0.440849	-0.0351667	-0.0737724	-0.17953	-0.143453	-0.220354	0.757125	2.13267	-0.11632	-0.166377	-0.177971	0.810646	2.10909
0.88	0.204008	0.0291397	0.00093645	0.921624	1.16047	-0.179681	0.124847	-0.0818904	-0.0337864	1.12874	-0.177662	-0.339926	-0.0592644	-0.0660959	0.106762	-0.170014	0.204758	0.0936785	-0.0141008	-0.122358	-0.440607	-0.0326807	-0.0749578	-0.183327	-0.142674	-0.223898	0.760779	2.13257	-0.114451	-0.167174	-0.176435	0.81847	2.10776
0.89	0.203315	0.0269624	0.00157592	0.931363	1.16152	-0.180201	0.143192	-0.080418	-0.0310897	1.11664	-0.167789	-0.350604	-0.0593573	-0.081214	0.105359	-0.172862	0.192733	0.0991566	-0.00113648	-0.122333	-0.440485	-0.0299894	-0.0758596	-0.186901	-0.141898	-0.22759	0.76429	2.13247	-0.112377	-0.16806	-0.174657	0.826671	2.10642
